<svg width="1080" height="1080" viewBox="0 0 1080 1080" fill="none" xmlns="http://www.w3.org/2000/svg">
<rect width="1080" height="1080" fill="#FCFCFC"/>
<path d="M263.305 459.016C273.461 459.016 282.055 463.833 289.086 473.469C293.253 478.417 298.135 497.232 303.734 529.914C313.24 583.039 322.81 642.284 332.445 707.649V708.82C332.445 721.971 326 731.672 313.109 737.922C308.943 739.354 305.102 740.07 301.586 740.07C290.909 740.07 282.185 734.927 275.414 724.641C272.94 721.516 270.596 710.774 268.383 692.414C261.221 646.841 255.883 613.378 252.367 592.024H251.977C250.935 594.498 243.773 612.271 230.492 645.344C223.721 656.281 214.607 661.75 203.148 661.75C189.867 661.75 179.451 653.612 171.898 637.336C155.753 608.43 147.549 593.912 147.289 593.781H147.094C140.714 673.729 137.133 715.721 136.352 719.758C133.487 728.612 128.734 734.992 122.094 738.899C116.755 741.633 111.547 743 106.469 743C95.0104 743 85.8958 737.271 79.125 725.813C77.0417 721.255 76 716.633 76 711.945C76.3906 705.175 82.5755 629.719 94.5547 485.578C97.0286 476.464 101.13 469.953 106.859 466.047C112.458 462.011 118.513 459.992 125.023 459.992C138.435 459.992 148.721 467.805 155.883 483.43L198.656 559.406H198.852C215.258 518.521 227.107 491.112 234.398 477.18C241.69 465.07 251.326 459.016 263.305 459.016Z" fill="#684DEC" fill-opacity="0.7"/>
<path d="M887.627 439.769C893.513 438.092 900.362 438.847 908.176 442.036C916.508 446.566 921.852 452.963 924.208 461.228C927.384 472.373 924.436 482.691 915.362 492.182C913.16 495.382 902.98 499.57 884.823 504.745L822.221 523.808L835.389 574.28L835.577 574.226C857.669 567.658 874.163 562.822 885.057 559.717C896.577 556.433 907.181 559.435 916.87 568.724C920.194 572.786 922.427 576.821 923.569 580.828C926.496 591.096 923.896 600.976 915.77 610.468C911.887 614.418 907.065 617.214 901.304 618.856C890.786 621.854 873.836 626.753 850.456 633.553L850.536 634.546L861.268 675.761L861.562 677.505C916.106 659.385 945.069 649.844 948.45 648.88C958.718 645.953 968.517 648.508 977.849 656.544C981.835 660.553 984.541 665.062 985.969 670.071C988.932 680.464 986.305 690.487 978.089 700.14C974.868 704.037 966.057 708.038 951.656 712.143C949.939 712.768 915.305 724.264 847.756 746.632C840.743 748.631 833.187 747.535 825.088 743.345C817.579 738.851 812.735 732.785 810.558 725.146C773.269 580.072 754.812 507.481 755.187 507.374C754.656 499.808 755.751 493.674 758.472 488.971C762.339 482.589 766.125 478.531 769.828 476.799C773.103 474.511 790.33 468.924 821.51 460.037C823.478 459.34 845.517 452.584 887.627 439.769Z" fill="#684DEC" fill-opacity="0.7"/>
<path d="M789.875 467.656C794.771 467.656 799.875 469.74 805.188 473.906C810.604 479.219 813.312 485.313 813.312 492.188C813.312 501.458 808.781 508.75 799.719 514.063C797.323 516.042 788.573 517.031 773.469 517.031L721.125 517.969L720.188 559.688H720.344C738.781 559.479 752.531 559.375 761.594 559.375C771.177 559.375 778.677 564.011 784.094 573.281C785.76 577.136 786.594 580.729 786.594 584.063C786.594 592.604 782.427 599.636 774.094 605.156C770.24 607.344 765.917 608.438 761.125 608.438C752.375 608.438 738.26 608.49 718.781 608.594L718.625 609.375L717.844 643.438L717.688 644.844C763.625 642.865 788 641.875 790.812 641.875C799.354 641.875 806.333 645.99 811.75 654.219C813.938 658.177 815.031 662.24 815.031 666.406C815.031 675.052 810.812 682.188 802.375 687.813C799.042 690.104 791.385 691.25 779.406 691.25C777.948 691.354 748.781 692.604 691.906 695C686.073 695 680.5 692.5 675.188 687.5C670.396 682.396 668 676.667 668 670.313C671.125 550.521 672.844 490.625 673.156 490.625C674.406 484.688 676.594 480.208 679.719 477.188C684.094 473.125 687.896 470.833 691.125 470.313C694.146 469.271 708.625 468.75 734.562 468.75C736.229 468.646 754.667 468.281 789.875 467.656Z" fill="#FFBF75" fill-opacity="0.7"/>
<path d="M613.131 465.608C621.207 464.719 628.463 467.798 634.897 474.845C638.643 478.416 644.172 492.95 651.483 518.45C663.689 559.863 676.482 606.138 689.862 657.273L689.964 658.205C691.115 668.662 686.838 676.94 677.134 683.038C673.946 684.541 670.954 685.447 668.159 685.754C659.668 686.688 652.281 683.362 645.997 675.774C643.756 673.505 640.953 665.168 637.587 650.762C627.905 615.149 620.733 589.006 616.069 572.333L615.758 572.367C615.146 574.425 611.006 589.185 603.338 616.647C598.911 625.936 592.141 631.083 583.03 632.085C572.468 633.247 563.473 627.687 556.044 615.404C540.676 593.831 532.883 583.003 532.664 582.922L532.509 582.94C534.429 647.072 535.255 680.778 534.987 684.056C533.483 691.348 530.262 696.837 525.323 700.524C521.317 703.165 517.295 704.708 513.257 705.153C504.145 706.155 496.396 702.396 490.01 693.877C487.954 690.435 486.722 686.851 486.312 683.123C486.03 677.705 484.348 617.161 481.264 501.492C482.434 494.028 485.126 488.492 489.34 484.884C493.44 481.185 498.078 479.05 503.255 478.481C513.92 477.308 522.783 482.62 529.845 494.419L570.504 551.094L570.66 551.077C580.129 517.129 587.154 494.297 591.734 482.58C596.473 472.313 603.605 466.656 613.131 465.608Z" fill="#684DEC" fill-opacity="0.7"/>
<path d="M363.508 495.286L366.921 494.442C384.869 489.999 403.826 492.885 423.792 503.101C436.092 510.519 444.398 516.712 448.713 521.681C473.414 546.686 490.489 578.275 499.937 616.446C510.23 658.029 508.03 694.12 493.337 724.719C480.46 748.564 461.825 763.505 437.431 769.543L435.724 769.966C413.985 775.347 391.947 773.022 369.611 762.99C356.018 755.222 348.64 750.341 347.476 748.349C338.493 740.78 331.216 733.058 325.645 725.181C312.394 706.329 302.937 685.464 297.274 662.586C287.2 621.888 289.151 584.248 303.126 549.669C308.077 539.322 313.133 531.028 318.296 524.788C331.374 509.344 346.445 499.51 363.508 495.286ZM356.805 647.851C362.75 671.865 373.097 690.096 387.848 702.541C398.44 710.65 409.929 713.172 422.316 710.106C439.379 705.882 446.702 687.235 444.284 654.165C443.419 645.794 442.126 638.133 440.405 631.181C433.679 604.007 422.014 581.81 405.412 564.592C396.021 555.917 387.344 552.565 379.381 554.536C363.961 558.353 354.968 575.67 352.401 606.486C351.99 620.538 353.458 634.327 356.805 647.851Z" fill="#FFBF75" fill-opacity="0.7"/>
<path d="M291.713 417.598C283.238 405.415 277.911 393.229 267 383" stroke="#FFBF75" stroke-opacity="0.7" stroke-width="40" stroke-linecap="round"/>
<path d="M359.891 381.381C351.023 366.107 337.857 354.426 329 339.369" stroke="#FFBF75" stroke-opacity="0.7" stroke-width="40" stroke-linecap="round"/>
<path d="M435.268 349.256C433.007 329.909 424.968 312.884 417.969 294.887" stroke="#FFBF75" stroke-opacity="0.7" stroke-width="40" stroke-linecap="round"/>
<path d="M525.467 330.719C519.747 316.417 520.493 300.054 519.289 285" stroke="#FFBF75" stroke-opacity="0.7" stroke-width="40" stroke-linecap="round"/>
<path d="M613.203 338.134C615.704 321.879 618.545 305.355 624.324 289.943" stroke="#FFBF75" stroke-opacity="0.7" stroke-width="40" stroke-linecap="round"/>
<path d="M703.398 357.904C717.513 342.614 725.736 322.152 734.29 303.535" stroke="#FFBF75" stroke-opacity="0.7" stroke-width="40" stroke-linecap="round"/>
<path d="M778.773 398.682C791.825 390.329 802.478 377.449 813.372 366.555" stroke="#FFBF75" stroke-opacity="0.7" stroke-width="40" stroke-linecap="round"/>
</svg>
